<svg id="shopping-cart-1" xmlns="http://www.w3.org/2000/svg" width="46.892" height="36.258" viewBox="0 0 46.892 36.258">
  <g id="Group_8" data-name="Group 8">
    <path id="Path_10" data-name="Path 10" d="M7.027,22.858,13.2,29.031H46.892l-6.44,9.484,0,0-5.711,8.362H18.672l1.654,5.378H33.394v.026a3.425,3.425,0,1,1-3.145,1.556H24.523a3.434,3.434,0,1,1-5.48-.37L11.776,29.847l-5.4-5.4H0V22.859H7.026ZM33.907,45.293l4.258-6.235H21.347V37.476h17.9l4.66-6.863H13.669l4.517,14.68ZM31.284,55.684a1.847,1.847,0,1,0,1.846-1.848A1.848,1.848,0,0,0,31.284,55.684Zm-9.645,1.847a1.847,1.847,0,1,0-1.848-1.847A1.848,1.848,0,0,0,21.639,57.531Z" transform="translate(0 -22.858)" fill="#fff"/>
  </g>
</svg>
